# xmcd
# 
# Track frame offsets:
#     150
#     12127
#     25192
#     38515
#     54667
#     69742
#     85670
#     98075
#     114075
#     130122
#     143120
#     158447
#     172962
# 
# Disc length: 2462
# 
# Revision: 1
# Processed by: cddbd v1.5.2PL0 Copyright (c) Steve Scherf et al.
# Submitted via: BonkEnc v1.0
# 
DISCID=91099c0d
DTITLE=Various Artist - Junger Adler
DYEAR=0
DGENRE=
TTITLE0=Tom Astor - Hallo, guten morgen Deutschland
TTITLE1=Tom Astor - Nutz die Zeit (Alter Junge nutz die Zeit)
TTITLE2=Tom Astor and The Bellamy Brothers - Redneck Riviera
TTITLE3=Tom Astor - Junger Adler
TTITLE4=Tom Astor - Sie war jung und frei
TTITLE5=Tom Astor - Schreib mir mal aus Mexico
TTITLE6=Tom Astor - Jeden Montag freu´n wir uns auf´s Wochenende
TTITLE7=Tom Astor - Sie and Er and Ich
TTITLE8=Tom Astor and The Bellamy Brothers - Schuld ist der Baby Boom
TTITLE9=Tom Astor - Hey Robby
TTITLE10=Tom Astor - Ein Mann lebt gerne seine Träume
TTITLE11=Tom Astor - Hey Darling
TTITLE12=Tom Astor - Ja, das ist Country Musik (LIVE)
EXTD=
EXTT0=
EXTT1=
EXTT2=
EXTT3=
EXTT4=
EXTT5=
EXTT6=
EXTT7=
EXTT8=
EXTT9=
EXTT10=
EXTT11=
EXTT12=
PLAYORDER=
